/* XPM */
static char *_eeeebe9797742afde0b1809c1e7066d[] = {
/* columns rows colors chars-per-pixel */
"80 80 147 2 ",
"   c #009D4E",
".  c #00A34D",
"X  c #08A64F",
"o  c #14A74F",
"O  c #1CA74F",
"+  c #1CA84F",
"@  c #01A252",
"#  c #0FA650",
"$  c #0EA45A",
"%  c #14A751",
"&  c #1AA750",
"*  c #1CA850",
"=  c #1CA55C",
"-  c #25A655",
";  c #28A656",
":  c #36A85F",
">  c #33A760",
",  c #39A864",
"<  c #34A96D",
"1  c #45AA60",
"2  c #4BAB61",
"3  c #44AB6A",
"4  c #4EAC6E",
"5  c #51AD64",
"6  c #53AE6D",
"7  c #57AE74",
"8  c #64B273",
"9  c #64B27D",
"0  c #69B47B",
"q  c #2D3492",
"w  c #263C97",
"e  c #293995",
"r  c #233E98",
"t  c #1F429A",
"y  c #224097",
"u  c #22439A",
"i  c #29479D",
"p  c #27499B",
"a  c #2D4A9E",
"s  c #354497",
"d  c #324D9E",
"f  c #35509F",
"g  c #39529F",
"h  c #344DA1",
"j  c #384EA2",
"k  c #3652A0",
"l  c #3E54A4",
"z  c #4155A5",
"x  c #445AA4",
"c  c #4A5DA6",
"v  c #4C5FA8",
"b  c #4D60A7",
"n  c #4F61A8",
"m  c #5464A7",
"M  c #5363AA",
"N  c #5867AC",
"B  c #5D6AAD",
"V  c #616DAE",
"C  c #6872AF",
"Z  c #626EB0",
"A  c #6571B1",
"S  c #6B75B3",
"D  c #6F78B5",
"F  c #727BB6",
"G  c #777EB8",
"H  c #787FB8",
"J  c #6AB380",
"K  c #75B684",
"L  c #7BBA85",
"P  c #7CBA8B",
"I  c #7EBC90",
"U  c #7D84BB",
"Y  c #8ABF94",
"T  c #8186BD",
"R  c #8389BE",
"E  c #898FBF",
"W  c #8BC193",
"Q  c #8DC199",
"!  c #96C59C",
"~  c #97C5A2",
"^  c #9CC7A3",
"/  c #9CC8A7",
"(  c #A3CBAA",
")  c #ACCFB2",
"_  c #B1D1B6",
"`  c #B3D3B9",
"'  c #B9D4BF",
"]  c #868CC1",
"[  c #898FC2",
"{  c #8C92C3",
"}  c #9196C5",
"|  c #9499C6",
" . c #959AC8",
".. c #999EC9",
"X. c #9DA2CB",
"o. c #9FA2D0",
"O. c #A2A6CE",
"+. c #A5A9CF",
"@. c #A8ADCF",
"#. c #A6AAD0",
"$. c #AAADD2",
"%. c #ADB1D3",
"&. c #B2B5D5",
"*. c #B5B9D7",
"=. c #B3B7D8",
"-. c #B7BBD8",
";. c #BABDDA",
":. c #BBD6C1",
">. c #BFC1DD",
",. c #C2D9C5",
"<. c #C5DBCA",
"1. c #C9DDCC",
"2. c #C1C4DD",
"3. c #C6C9DF",
"4. c #C9CBDF",
"5. c #CEDFD0",
"6. c #D3E1D5",
"7. c #D6E4D9",
"8. c #DAE6DC",
"9. c #DEE8DD",
"0. c #C7C9E1",
"q. c #CBCDE2",
"w. c #CFD1E3",
"e. c #D2D4E5",
"r. c #D7D8E7",
"t. c #D9DBE7",
"y. c #D5D7E8",
"u. c #D7D9E8",
"i. c #DBDCE9",
"p. c #DEE8E0",
"a. c #DFE0EA",
"s. c #E4EBE4",
"d. c #E3E4ED",
"f. c #E7EBEC",
"g. c #E8EBEE",
"h. c #ECF0EC",
"j. c #E5E7F0",
"k. c #E6EAF0",
"l. c #ECEDF1",
"z. c #EFF1F3",
"x. c #F3F4F4",
"c. c #F7F9F7",
"v. c #F8FAF7",
"b. c #F5F6F9",
"n. c #F8F7FA",
"m. c #FFFFFF",
"M. c None",
/* pixels */
"M.M.M.M.M.M.M.M.M.M.M.M.M.M.M.M.M.M.M.M.M.M.M.M.M.M.M.M.M.M.M.M.M.M.M.m.m.m.m.m.m.m.m.m.m.m.M.M.M.M.M.M.M.M.M.M.M.M.M.M.M.M.M.M.M.M.M.M.M.M.M.M.M.M.M.M.M.M.M.M.",
"M.M.M.M.M.M.M.M.M.M.M.M.M.M.M.M.M.M.M.M.M.M.M.M.M.M.M.M.M.M.m.m.m.m.m.m.m.m.m.m.m.m.m.m.m.m.m.m.m.m.M.M.M.M.M.M.M.M.M.M.M.M.M.M.M.M.M.M.M.M.M.M.M.M.M.M.M.M.M.M.",
"M.M.M.M.M.M.M.M.M.M.M.M.M.M.M.M.M.M.M.M.M.M.M.M.M.M.m.m.m.m.m.m.m.m.d.4.;.$.O.o.o.o.$.-.q.d.m.m.m.m.m.m.m.m.M.M.M.M.M.M.M.M.M.M.M.M.M.M.M.M.M.M.M.M.M.M.M.M.M.M.",
"M.M.M.M.M.M.M.M.M.M.M.M.M.M.M.M.M.M.M.M.M.M.M.M.m.m.m.m.m.x.>.| D N z d u t t u t t t u a l m D } ;.z.m.m.m.m.m.M.M.M.M.M.M.M.M.M.M.M.M.M.M.M.M.M.M.M.M.M.M.M.M.",
"M.M.M.M.M.M.M.M.M.M.M.M.M.M.M.M.M.M.M.M.M.M.m.m.m.m.c.%.G c u r t i h h l l l l l l l l k h i r r u x F %.x.m.m.m.m.M.M.M.M.M.M.M.M.M.M.M.M.M.M.M.M.M.M.M.M.M.M.",
"M.M.M.M.M.M.M.M.M.M.M.M.M.M.M.M.M.M.M.M.m.m.m.m.u.E c t r a l l l l l l l l l l l l l l l l l l z k a w t x T e.m.m.m.m.M.M.M.M.M.M.M.M.M.M.M.M.M.M.M.M.M.M.M.M.",
"M.M.M.M.M.M.M.M.M.M.M.M.M.M.M.M.M.M.m.m.m.m.w.G d e i l l l l l l l l l l l l l l l l l l l l l l z l l l i w h D 4.m.m.m.m.M.M.M.M.M.M.M.M.M.M.M.M.M.M.M.M.M.M.",
"M.M.M.M.M.M.M.M.M.M.M.M.M.M.M.M.M.m.m.m.g.H p e d z l l l l l l l l l l l l l l l z l l l l l l l l l l l l z h w p D d.m.m.m.M.M.M.M.M.M.M.M.M.M.M.M.M.M.M.M.M.",
"M.M.M.M.M.M.M.M.M.M.M.M.M.M.M.m.m.m.m.X.g w f z l l l l l l l l l l l l l l l l l z l l l l l l l l l l l l l l l j w f ..m.m.m.m.M.M.M.M.M.M.M.M.M.M.M.M.M.M.M.",
"M.M.M.M.M.M.M.M.M.M.M.M.M.M.m.m.m.z.A w i z l l l l l l l l z l l l l l l l l l l l l l l l l l l l l l l l l l l l z a e B d.m.m.m.M.M.M.M.M.M.M.M.M.M.M.M.M.M.",
"M.M.M.M.M.M.M.M.M.M.M.M.M.m.m.m.0.l w l l l l l l l l z l l l l l k h i u u y y u u r t p d k l l z l l l z l l l l l z l w g -.m.m.m.M.M.M.M.M.M.M.M.M.M.M.M.M.",
"M.M.M.M.M.M.M.M.M.M.M.M.m.m.m.&.t u z l l l l z z l l l l l f u r a z N D T } ....} T D B z p r u h z l l l l l l l l l j d q q %.m.m.m.M.M.M.M.M.M.M.M.M.M.M.M.",
"M.M.M.M.M.M.M.M.M.M.M.m.m.m.+.y i z l l l l l l l l l l i r f V } 2.j.m.m.m.m.m.m.m.m.m.m.d.2.} Z d w i l l l l l l z p i b T #.y.m.m.m.m.M.M.M.M.M.M.M.M.M.M.M.",
"M.M.M.M.M.M.M.M.M.M.m.m.m.X.w a x l l l l l l l l z u r b } r.m.m.m.m.m.m.m.m.m.m.m.m.m.m.m.m.m.m.r.} b r p l l l z u B 2.v.m.m.m.m.m.m.m.m.M.M.M.M.M.M.M.M.M.M.",
"M.M.M.M.M.M.M.M.M.m.m.m.+.e d z l l l l l l l z i w n @.m.m.m.m.m.m.m.m.m.m.m.m.m.m.m.m.m.m.m.m.m.m.m.v.O.n w a z k u d.m.m.m.m.m.m.m.m.m.m.m.M.M.M.M.M.M.M.M.M.",
"M.M.M.M.M.M.M.M.m.m.m.-.y a z l l l l l l z l w g ..m.m.m.m.m.m.m.m.m.m.m.m.m.m.m.m.m.m.m.m.m.m.m.m.m.m.m.m. .h r w D m.m.m.m.m.m.m.m.m.m.m.m.m.M.M.M.M.M.M.M.M.",
"M.M.M.M.M.M.M.M.m.m.q.t i z l l l l l l z a w C d.m.m.m.m.m.m.m.m.m.m.m.m.m.m.m.m.m.m.m.m.m.m.m.m.m.m.m.m.m.m.a.B q 3.m.m.m.m.m.m.m.m.m.m.m.m.m.M.M.M.M.M.M.M.M.",
"M.M.M.M.M.M.M.m.m.x.l u z l l l z l l z u a X.m.m.m.m.m.m.m.m.m.m.m.m.m.m.m.m.m.m.m.m.m.m.m.m.m.m.m.m.s.v.m.m.m.m.-.m.m.m.m.m.m.m.m.m.m.m.m.m.m.m.M.M.M.M.M.M.M.",
"M.M.M.M.M.M.m.m.m.S w z l l l l l l z t g 3.m.m.m.m.m.m.m.m.m.m.m.m.m.m.m.m.m.m.m.m.m.m.m.m.m.m.7.( < K v.m.m.m.m.m.m.m.m.m.m.m.m.m.m.m.m.m.m.m.m.m.M.M.M.M.M.M.",
"M.M.M.M.M.M.m.m.%.e l l l l l l l x u g i.m.m.m.m.m.m.m.m.m.m.m.m.m.m.m.m.m.m.m.m.m.m.m.b.<.Y 6       1.m.m.m.m.m.m.m.m.m.m.m.m.m.m.m.m.m.m.m.m.m.m.M.M.M.M.M.M.",
"M.M.M.M.M.m.m.z.k i z l l l l l x u d a.m.m.m.m.m.m.m.m.m.m.m.m.m.m.m.m.m.m.m.m.m.s.` P :     . .   8 m.m.m.m.m.m.m.m.m.m.m.m.m.m.m.m.m.m.m.m.m.m.m.m.M.M.M.M.M.",
"M.M.M.M.M.m.m.U e z l l l l l l a u w.m.m.m.m.m.m.m.m.m.m.m.m.m.m.m.m.m.m.m.9.( 0 $     . . # X .   ,.m.m.m.m.m.m.m.m.m.m.m.m.m.m.m.m.m.m.m.m.m.m.m.m.M.M.M.M.M.",
"M.M.M.M.m.m.i.p h l l l l l l l w %.m.m.m.m.m.m.m.m.m.m.m.m.m.m.m.m.m.m.m.`       . . # X X X # . 2 m.m.m.m.m.m.m.m.m.m.m.m.m.m.m.m.m.m.m.m.m.m.m.m.m.m.M.M.M.M.",
"M.M.M.M.m.m.U e z l l l l l z e D m.m.m.m.m.m.m.m.m.m.m.m.m.m.m.b.m.m.m.m.2   # # X X X X X X o   ( m.m.m.m.m.m.m.m.m.m.m.m.m.m.m.m.m.m.m.m.m.m.m.m.m.m.M.M.M.M.",
"M.M.M.m.m.d.a h l l l l l l i g x.m.m.m.m.m.m.m.m.m.m.m.m.2.T C l.m.m.m.<.  . X X X X X X X # . % x.m.m.m.m.m.m.m.m.m.m.m.m.m.m.m.m.m.m.m.m.m.m.m.m.m.m.m.M.M.M.",
"M.M.M.m.m.{ w z l l l l l l w %.m.m.m.m.m.m.m.m.m.g.&.U n p q H m.m.m.m.8   o X X X X X X X &   Q m.m.m.m.m.m.m.m.m.m.m.m.m.m.m.m.m.m.m.m.m.m.m.m.m.m.m.m.M.M.M.",
"M.M.m.m.v.c i l l l l l l u N m.m.m.m.m.m.m.r.O.D x y u i a g z.m.m.m.7.. . X X X X X X X X . . f.m.m.m.m.m.m.m.m.m.m.m.m.m.m.m.m.m.m.m.m.m.m.m.m.m.m.m.m.m.M.M.",
"M.M.m.m.-.u l l z l l l g r >.m.m.m.m.i.] V f u r a l l z w T m.m.m.m.L   o X X X X X X X o   L m.m.m.m.m.m.m.m.m.m.m.m.m.m.m.m.m.m.m.m.m.m.m.m.m.m.m.m.m.m.M.M.",
"M.M.m.m.G w l l l l l l u N m.m.m.m.m.3.q y h l l l l l h a i.m.m.m.g.. . X X X X X X X X .   7.m.m.m.m.m.m.m.m.m.m.m.m.m.m.m.m.m.m.m.m.m.m.m.m.m.m.m.m.m.m.M.M.",
"M.m.m.v.x a l l l l l l w O.m.m.m.m.m.m.N u l l l l l l w D m.m.m.m.W   % X X X X X X X o   8 m.m.m.m.m.m.m.m.m.m.m.m.m.m.m.m.m.m.m.m.m.m.m.m.m.m.m.m.m.m.m.m.M.",
"M.m.m.2.u l l l l l l h l z.m.m.m.m.m.m.{ y z l l l l j t 0.m.m.m.h.  . # X X X X X X X .   ,.m.m.m.m.m.m.m.m.m.m.m.m.m.m.m.m.m.m.m.m.m.m.m.m.m.m.m.m.m.m.m.m.M.",
"M.m.m.} y z l l l l l u D m.m.m.m.m.m.m.3.u l l l l z u Z m.m.m.m.!   % X X X X X X X o   5 m.m.m.m.m.m.m.m.m.m.m.m.m.m.m.m.m.m.m.m.m.m.m.m.m.m.m.m.m.m.m.m.m.M.",
"M.m.m.D t l l l l l l u X.m.m.m.m.m.m.m.m.c i l l l l w &.m.m.m.n.; . # X X X X X X X .   ' m.m.m.m.m.m.m.m.m.m.m.m.m.m.m.m.m.m.m.m.m.m.m.m.m.m.m.m.m.m.m.m.m.M.",
"M.m.m.M i l l l l l h d u.m.m.m.m.m.m.m.m.U w l l l i M m.m.m.m.)   # X X X X X X X #   1 m.m.m.m.m.m.m.m.m.m.m.m.m.m.m.m.m.m.m.m.m.m.m.m.m.m.m.m.m.m.m.m.m.m.M.",
"m.m.j.l h l l l l l a c v.m.m.m.m.m.m.m.m.&.u z l l w ..m.m.m.m.5   # X X X X X X X &   ( m.m.m.m.m.m.m.m.m.m.m.m.m.m.m.m.m.m.m.m.m.m.m.m.m.m.m.m.m.m.m.m.m.m.m.",
"m.m.q.a j l l l l l u C m.m.m.m.m.m.m.m.m.l.k h l d k g.m.m.m.1.  . X X X X X X X # . . x.m.m.m.m.m.m.m.m.m.m.m.m.m.m.m.m.m.m.m.m.m.m.m.m.m.m.m.m.m.m.m.m.m.m.m.",
"m.m.=.u l l l l l l u U m.m.m.m.m.m.m.m.m.m.C u l w T m.m.m.m.0   o X X X X X X X o   Y m.m.m.m.m.m.m.m.m.m.m.m.m.m.m.m.m.m.m.m.m.m.m.m.m.m.m.m.m.m.m.m.m.m.m.m.",
"m.m.#.t l l l l z l w } m.m.m.m.m.m.m.m.m.m...w h a i.m.m.m.8.  . X X X X X X X X . . s.m.m.m.m.m.m.m.m.m.m.m.m.m.m.m.m.m.m.m.m.m.m.m.m.m.m.m.m.m.m.m.m.m.m.m.m.",
"m.m.X.u l l l l l l t +.m.m.m.m.m.m.m.m.m.m.d.k e D m.m.m.m.L   o X X X X X X X X   Y m.m.m.m.m.m.m.m.m.m.m.m.m.m.m.m.m.m.m.m.m.m.m.m.m.m.m.m.m.m.m.m.m.m.m.m.m.",
"m.m.| u l l l l l l u %.m.m.m.m.m.m.m.m.m.m.m.C q q.m.m.m.h.. . X X X X X X X X .   ' m.m.m.m.m.m.m.m.m.m.m.m.m.m.m.m.m.m.m.m.m.m.m.m.m.m.m.m.m.m.m.m.m.m.m.m.m.",
"m.m. .u l l l l l l t &.m.m.m.m.m.m.m.m.m.m.m.U k m.m.m.m.!   o X X X X X X X X X . @ Q m.m.m.m.m.m.m.m.m.m.m.m.m.m.m.m.m.m.m.m.m.m.m.m.m.m.m.m.m.m.m.m.m.m.m.m.",
"m.m...u l l l l l l t #.m.m.m.m.m.m.m.m.m.m.m.>.&.m.m.m.n.- . # X X X X X X X X X * @   , ' m.m.m.m.m.m.m.m.m.m.m.m.m.m.m.m.m.m.m.m.m.m.m.m.m.m.m.m.m.m.m.m.m.m.",
"m.m.#.t l l l l l l r | m.m.m.m.m.m.m.m.m.m.m.m.m.m.m.m.(   # X X X X X X X X X X X # #     J s.m.m.m.m.m.m.m.m.m.m.m.m.m.m.m.m.m.m.m.m.m.m.m.m.m.m.m.m.m.m.m.m.",
"m.m.=.t l l l l l l u T m.m.m.m.m.m.m.m.m.m.m.m.m.m.m.m.=   O # X X X X X X X X X X X X & .   @ / m.m.m.m.m.m.m.m.m.m.m.m.m.m.m.m.m.m.m.m.m.m.m.m.m.m.m.m.m.m.m.",
"m.m.0.a j l l l l l u S m.m.m.m.m.m.m.m.m.m.m.m.m.m.m.v._ >   . o X X X X X X X X X X X X X + .   4 5.m.m.m.m.m.m.m.m.m.m.m.m.m.m.m.m.m.m.m.m.m.m.m.m.m.m.m.m.m.",
"m.m.d.k h l l l l l i n m.m.m.m.m.m.m.m.m.m.m.m.m.m.m.m.m.v.Y   . o # X X X X X X X X X X X X % #     Y m.m.m.m.m.m.m.m.m.m.m.m.m.m.m.m.m.m.m.m.m.m.m.m.m.m.m.m.",
"M.m.m.n i l l l l l j d u.m.m.m.m.m.m.m.m.m.m.m.m.m.m.m.m.m.m.:.,   . * X X X X X X X X X X X X X O .   3 <.m.m.m.m.m.m.m.m.m.m.m.m.m.m.m.m.m.m.m.m.m.m.m.m.m.M.",
"M.m.m.S u l l l l l l y @.m.m.m.m.m.m.m.m.m.m.m.m.x.m.m.m.m.m.m.m.Y     . & X X X X X X X X X X X X # o     P z.m.m.m.m.m.m.m.m.m.m.m.m.m.m.m.m.m.m.m.m.m.m.m.M.",
"M.m.m.{ r l l l l l l r G m.m.m.m.m.m.m.m.m.m.m.m.d.U j.m.m.m.m.m.m.8.9   . + # X X X X X X X X X X X X & .   $ ) m.m.m.m.m.m.m.m.m.m.d.m.m.m.m.m.m.m.m.m.m.m.M.",
"M.m.m.;.t l l l l l l a z c.m.m.m.m.m.m.m.m.m.m.m.m.x s @.m.m.m.m.m.m.m.) =   . + X X X X X X X X X X X X # * .   7 6.m.m.m.m.m.m.m.l.d D j.m.m.m.m.v.&.e.m.m.M.",
"M.m.m.x.x a l l l l l l r %.m.m.m.m.m.m.m.m.m.m.m.m.+.q w A t.m.m.m.m.m.m.x.P   . # o X X X X X X X X X X X X o .     Q m.m.m.m.m.m.%.w e l +.d.&.U x y w.m.m.M.",
"M.M.m.m.F w l l l l l l u Z m.m.m.m.m.m.m.m.m.m.m.m.d.d f w d } m.m.m.m.m.m.m.<.3   . & X X X X X X X X X X X X X * .     ^ x.m.m.m.B y z a p l u r q V m.m.M.M.",
"M.M.m.m.%.r l l l l l l k u q.m.m.m.m.m.m.m.m.m.m.m.m.B y x a w m >.m.m.m.m.m.m.m.~     . & X X X X X X X X # # . .     @ 0 f.m.m.3.t k l z k h k z w X.m.m.M.M.",
"M.M.m.m.x.l a l l l l z z w A m.m.m.m.m.m.m.m.m.m.m.m.} w l z l r y H f.m.m.m.m.m.m.p.9     & # X X X # . .     . 6 Q <.m.m.m.m.m.B r l l l z l l h d l.m.m.M.M.",
"M.M.M.m.m.T w z l l l l z k r >.m.m.m.m.m.m.m.m.m.m.m.w.p g l l z g w g X.m.m.m.m.m.m.m.` =   . O . .     % J ( 7.m.m.m.m.m.m.m.-.r l l l l l l l w F m.m.M.M.M.",
"M.M.M.m.m.u.p j l l l l l l p x m.m.m.m.m.m.m.m.m.m.m.m.n i l l l l z i w Z e.m.m.m.m.m.m.x.W       : P ` f.m.m.m.m.m.m.m.m.m.m.z i l l l l l l l t q.m.m.M.M.M.",
"M.M.M.M.m.m.D w z l l l l l z e T m.m.m.m.m.m.m.m.m.m.m.T w z g l l l l l r a E m.m.m.m.m.m.m.1.Q <.n.m.m.m.m.m.m.m.m.m.m.m.m.U e z l l l l l z r A m.m.M.M.M.M.",
"M.M.M.M.m.m.q.t k l l l l l l j y 2.m.m.m.m.m.m.m.m.m.m.-.y l z l l l l l z a e n &.x.m.m.m.m.m.m.m.m.m.m.m.m.m.m.m.m.m.m.m.-.r j l l l l l l j r 2.m.m.M.M.M.M.",
"M.M.M.M.M.m.m.D e z l l l l l z i d d.m.m.m.m.m.m.m.m.m.x.x a l l l l l l h u r q x e.m.m.m.m.m.m.m.m.m.m.m.m.m.m.m.m.m.m.d.a a z l l l l l z w V m.m.m.M.M.M.M.",
"M.M.M.M.M.m.m.d.a a z l z l l l z u x z.m.m.m.m.m.m.m.m.m.D r z l l d r y g B { 3.x.m.m.m.m.m.m.m.m.m.m.m.m.m.m.m.m.m.m.g.l u z l l l z l l h p r.m.m.M.M.M.M.M.",
"M.M.M.M.M.M.m.m...e z l l l l l l z w v x.m.m.m.m.m.m.m.m.+.w p r y x C X.r.m.m.m.m.m.m.m.m.m.m.m.m.m.m.m.m.m.m.m.m.m.z.x y z z l l l l l z e E m.m.M.M.M.M.M.M.",
"M.M.M.M.M.M.m.m.m.N w z l l l l l l z w x a.m.m.m.m.m.m.m.a.p x U &.f.m.m.m.m.m.m.m.m.m.m.m.m.m.m.m.m.m.m.m.m.m.m.m.i.z w z l l l l l l z y b m.m.m.M.M.M.M.M.M.",
"M.M.M.M.M.M.M.m.m.d.p i z l l l z l l z r f *.m.m.m.m.m.m.m.e.c.m.m.m.m.m.m.m.m.m.m.m.m.m.m.m.m.m.m.m.m.m.m.m.m.m.&.k u z l l l l l l z a u u.m.m.M.M.M.M.M.M.M.",
"M.M.M.M.M.M.M.M.m.m.-.w h z z l l l l l z p t U m.m.m.m.m.m.m.m.m.m.m.m.m.m.m.m.m.m.m.m.m.m.m.m.m.m.m.m.m.m.m.v.U u i z l l l l l l z f w %.m.m.M.M.M.M.M.M.M.M.",
"M.M.M.M.M.M.M.M.m.m.m.X.w f l l l z l l l z j w v %.m.m.m.m.m.m.m.m.m.m.m.m.m.m.m.m.m.m.m.m.m.m.m.m.m.m.m.m.%.c w h z l l l l l l z g w } m.m.m.M.M.M.M.M.M.M.M.",
"M.M.M.M.M.M.M.M.M.m.m.m.{ e g z l l l l l l l z u u A >.m.m.m.m.m.m.m.m.m.m.m.m.m.m.m.m.m.m.m.m.m.m.m.m.;.A y y z l l z l l l z z k e T m.m.m.M.M.M.M.M.M.M.M.M.",
"M.M.M.M.M.M.M.M.M.M.m.m.m.R e g z l l l l l l l z k w u Z @.z.m.m.m.m.m.m.m.m.m.m.m.m.m.m.m.m.m.m.l.+.V u r g x l l l l l l l z j e U m.m.m.M.M.M.M.M.M.M.M.M.M.",
"M.M.M.M.M.M.M.M.M.M.M.m.m.m.E w d z l l z l l l l l z l t y x G @.r.m.m.m.m.m.m.m.m.m.m.m.m.u.#.G x t t k z z l z l l l l l z h e T m.m.m.M.M.M.M.M.M.M.M.M.M.M.",
"M.M.M.M.M.M.M.M.M.M.M.M.m.m.m...e i z l l l l l l l l l z l a r t k N D ] X.%.>.>.%...] S M j t y a l l l l z l l l l l l l a w E m.m.m.M.M.M.M.M.M.M.M.M.M.M.M.",
"M.M.M.M.M.M.M.M.M.M.M.M.M.m.m.m.%.a w l l l l l l z l l l l l l l h i t r t u i p t t y t i j l z l l l l l l l z l l l l r p O.m.m.m.M.M.M.M.M.M.M.M.M.M.M.M.M.",
"M.M.M.M.M.M.M.M.M.M.M.M.M.M.m.m.m.r.M w d z l l l l l l l l l l l l l l l l l j l l l l l l l l l l l l l l l l l l z f e v q.m.m.m.M.M.M.M.M.M.M.M.M.M.M.M.M.M.",
"M.M.M.M.M.M.M.M.M.M.M.M.M.M.M.m.m.m.m.E p w l l l l l l l l l l l l l l l l l l l l l l l l l l l l l z l l l l z k r y U m.m.m.m.M.M.M.M.M.M.M.M.M.M.M.M.M.M.M.",
"M.M.M.M.M.M.M.M.M.M.M.M.M.M.M.M.M.m.m.m.w.V y r k z l l l l l l z l l l l l l l l l l l l l l l l l z l l l z l y u N 3.m.m.m.M.M.M.M.M.M.M.M.M.M.M.M.M.M.M.M.M.",
"M.M.M.M.M.M.M.M.M.M.M.M.M.M.M.M.M.M.m.m.m.m.*.Z u w h l l l l l l l l l l l l l l l l l l l l l l l l l l d r t N %.m.m.m.m.M.M.M.M.M.M.M.M.M.M.M.M.M.M.M.M.M.M.",
"M.M.M.M.M.M.M.M.M.M.M.M.M.M.M.M.M.M.M.M.m.m.m.m.2.D g w t h l l k l l l l l l l l l l l l l l l l l h u w g S -.m.m.m.m.M.M.M.M.M.M.M.M.M.M.M.M.M.M.M.M.M.M.M.M.",
"M.M.M.M.M.M.M.M.M.M.M.M.M.M.M.M.M.M.M.M.M.M.m.m.m.m.a...Z k t w i h k k l l l z l l l l l k d p r u k B | u.m.m.m.m.m.M.M.M.M.M.M.M.M.M.M.M.M.M.M.M.M.M.M.M.M.M.",
"M.M.M.M.M.M.M.M.M.M.M.M.M.M.M.M.M.M.M.M.M.M.M.M.m.m.m.m.m.i.+.U B z d u u y y y w r r t u a x N U +.u.m.m.m.m.m.M.M.M.M.M.M.M.M.M.M.M.M.M.M.M.M.M.M.M.M.M.M.M.M.",
"M.M.M.M.M.M.M.M.M.M.M.M.M.M.M.M.M.M.M.M.M.M.M.M.M.M.m.m.m.m.m.m.m.j.q.-.+.} ] E ] { | o.&.q.k.m.m.m.m.m.m.m.M.M.M.M.M.M.M.M.M.M.M.M.M.M.M.M.M.M.M.M.M.M.M.M.M.M.",
"M.M.M.M.M.M.M.M.M.M.M.M.M.M.M.M.M.M.M.M.M.M.M.M.M.M.M.M.M.m.m.m.m.m.m.m.m.m.m.m.m.m.m.m.m.m.m.m.m.m.m.M.M.M.M.M.M.M.M.M.M.M.M.M.M.M.M.M.M.M.M.M.M.M.M.M.M.M.M.M.",
"M.M.M.M.M.M.M.M.M.M.M.M.M.M.M.M.M.M.M.M.M.M.M.M.M.M.M.M.M.M.M.M.M.M.m.m.m.m.m.m.m.m.m.m.m.m.M.M.M.M.M.M.M.M.M.M.M.M.M.M.M.M.M.M.M.M.M.M.M.M.M.M.M.M.M.M.M.M.M.M."
};
