/* XPM */
static char *eb62ddbd8f914e4989ef8f10ff8cf16a[] = {
/* columns rows colors chars-per-pixel */
"32 32 107 2 ",
"   c #009C4E",
".  c #00A24D",
"X  c #09A64E",
"o  c #14A74E",
"O  c #1AA74F",
"+  c #00A452",
"@  c #0FA650",
"#  c #13A750",
"$  c #1CA750",
"%  c #24A858",
"&  c #2AA85E",
"*  c #39AA59",
"=  c #3EAB64",
"-  c #42AB5C",
";  c #48AD65",
":  c #54AF64",
">  c #6CB676",
",  c #6AB67E",
"<  c #2B3594",
"1  c #273B97",
"2  c #293995",
"3  c #243E98",
"4  c #1F429A",
"5  c #22429B",
"6  c #29479E",
"7  c #2C499E",
"8  c #324D9F",
"9  c #2F4BA0",
"0  c #334DA1",
"q  c #394FA1",
"w  c #3750A1",
"e  c #3C52A3",
"r  c #4256A5",
"t  c #4659A7",
"y  c #495CA7",
"u  c #4259A8",
"i  c #4A5CA8",
"p  c #5161AB",
"a  c #5966AD",
"s  c #5B68AE",
"d  c #626DB1",
"f  c #6C6EB0",
"g  c #6B74B4",
"h  c #6C76B8",
"j  c #7077B6",
"k  c #757CB9",
"l  c #797FBB",
"z  c #6EB882",
"x  c #73B980",
"c  c #7DBD86",
"v  c #79BC8A",
"b  c #7EBE91",
"n  c #7C83BD",
"m  c #8186BF",
"M  c #83C092",
"N  c #95C796",
"B  c #93C69E",
"V  c #9FCBA3",
"C  c #A7CFA9",
"Z  c #A8D0A9",
"A  c #B1D5AC",
"S  c #B4D5B6",
"D  c #BBD9BE",
"F  c #8487C0",
"G  c #858AC2",
"H  c #8A8EC3",
"J  c #8D91C6",
"K  c #9095C7",
"L  c #9499C8",
"P  c #999DCB",
"I  c #9DA1CE",
"U  c #A2A4CF",
"Y  c #A2A5D0",
"T  c #A7A9D2",
"R  c #ABAED4",
"E  c #AEB1D6",
"W  c #B0B2D7",
"Q  c #B3B6D9",
"!  c #BBB5DA",
"~  c #B9BBDC",
"^  c #C5DDC6",
"/  c #C1C3DF",
"(  c #CCE1CB",
")  c #D0E5CE",
"_  c #D1E4D4",
"`  c #DBE9DB",
"'  c #C3C5E1",
"]  c #CAC9E4",
"[  c #CDD0E5",
"{  c #D0D1E7",
"}  c #D3D4E9",
"|  c #DAD3E9",
" . c #DBDCED",
".. c #DFE0EE",
"X. c #E1E1EE",
"o. c #EFF3EB",
"O. c #F1F7EA",
"+. c #F6FAEE",
"@. c #E4E4F0",
"#. c #ECECF3",
"$. c #EEF3F0",
"%. c #F2F2F7",
"&. c #F5F5F8",
"*. c #FEF7FA",
"=. c #F7F8F9",
"-. c #FFFFFE",
";. c None",
/* pixels */
";.;.;.;.;.;.;.;.;.;.;.;.-.-.-.%.%.-.-.-.;.;.;.;.;.;.;.;.;.;.;.;.",
";.;.;.;.;.;.;.;.;.-.=.W m d p i i p d m W =.-.;.;.;.;.;.;.;.;.;.",
";.;.;.;.;.;.;.-.%.J t 4 3 5 6 7 7 6 5 3 5 r H %.-.;.;.;.;.;.;.;.",
";.;.;.;.;.;.-.R r 1 6 e w 6 4 5 5 4 6 w e 6 2 e Y -.;.;.;.;.;.;.",
";.;.;.;.;.-.m 1 5 r 7 3 8 a k G G k a 8 3 7 t 2 < P -.;.;.;.;.;.",
";.;.;.;.-.k 2 w w 1 t J { -.-.-.-.-.-.{ J r < p ' X.-.-.;.;.;.;.",
";.;.;.-.G < e 8 5 n #.-.-.-.-.-.-.-.-.-.-.#.f E -.-.-.-.-.;.;.;.",
";.;.-.~ 1 w 8 5 U -.-.-.-.-.-.-.-.-._ b V -.-.-.-.-.-.-.-.-.;.;.",
";.;.=.r 6 w 3 R -.-.-.-.-.-.-.( M ;     ^ -.-.-.-.-.-.-.-.-.;.;.",
";.-.L 2 r 1 m -.-.-.-.X.~ -.`     .   > -.-.-.-.-.-.-.-.-.-.-.;.",
";.=.t 6 6 r -.-.} U j 5 m -.c   # .   ( -.-.-.-.-.-.-.-.-.-.-.;.",
";.~ 5 e 1 P -.#.r 2 < 6 *.+.. . o   : -.-.-.-.-.-.-.-.-.-.-.-.;.",
"-.F 3 w 0 @.-.-.d 5 2 H -.N   O @   S -.-.-.-.-.-.-.-.-.-.-.-.-.",
"-.d 4 5 d -.-.-.U 2 8 #.-.@ . @ . * -.-.-.-.-.-.-.-.-.-.-.-.-.-.",
"-.p 6 5 n -.-.-.X.2 h -.A   o X   C -.-.-.-.-.-.-.-.-.-.-.-.-.-.",
"%.t 7 3 K -.-.-.-.y ! -.-   @ . + -.-.-.-.-.-.-.-.-.-.-.-.-.-.-.",
"%.t 9 3 K -.-.-.-.[ *.A   o X X + , ` -.-.-.-.-.-.-.-.-.-.-.-.-.",
"=.p 6 5 n -.-.-.-.-.-.c   . O o X     B -.-.-.-.-.-.-.-.-.-.-.-.",
"-.d 5 4 d -.-.-.-.-.-.-.Z +   . O $ .   = ^ -.-.-.-.-.-.-.-.-.-.",
"-.F 3 0 w #.-.-.-.-.R ] -.O.,   . O # #     v o.-.-...' -.-. .-.",
";.Q 5 e 1 I -.-.-.-.P 2 L *.-.D &   . $ o .     S -.K < k e Y ;.",
";.=.t 6 6 t -.-.-.-.-.q < a ] -.-.M       % x B ) -.i 5 < 5 %.;.",
";.-.J 2 r 2 H -.-.-.-.k 3 4 5 g | -.( M D $.-.-.-.G 1 u 1 H -.;.",
";.;.&.w 6 w 5 W -.-.-.E < 3 4 7 P -.-.-.-.-.-.-.E 5 w 7 w #.;.;.",
";.;.-.W 2 e 9 5 E -.-.@.d H ] -.-.-.-.-.-.-.-.R 4 7 e 2 R -.;.;.",
";.;.;.-.n 2 e 7 4 F &.-.-.-.-.-.-.-.-.-.-.=.m 5 7 r 2 k -.;.;.;.",
";.;.;.;.-.g 2 e e 3 y L X.-.-.-.-.-.-.} L y 3 w e < g -.;.;.;.;.",
";.;.;.;.;.-.l 1 6 r 6 1 q d n K K n d w 3 6 r 7 2 k -.;.;.;.;.;.",
";.;.;.;.;.;.-.Y w 1 7 e w 5 4 5 5 3 5 w e 8 2 w I -.;.;.;.;.;.;.",
";.;.;.;.;.;.;.-.#.m r 5 3 5 7 0 0 7 5 3 5 e n @.-.;.;.;.;.;.;.;.",
";.;.;.;.;.;.;.;.;.-.#.T n s i r r i s n T #.-.;.;.;.;.;.;.;.;.;.",
";.;.;.;.;.;.;.;.;.;.;.;.-.-.&.#.@.%.-.-.;.;.;.;.;.;.;.;.;.;.;.;."
};
