/* XPM */
static char *_e3a4a14587c4047a5e2eddefa85906e[] = {
/* columns rows colors chars-per-pixel */
"32 32 109 2 ",
"   c #003576",
".  c #193F79",
"X  c #2A477C",
"o  c #2E497D",
"O  c #334B7E",
"+  c #009600",
"@  c #009A05",
"#  c #009B16",
"$  c #009C1C",
"%  c #009E2D",
"&  c #009F32",
"*  c #00A03B",
"=  c #00A244",
"-  c #00A54E",
";  c #00A654",
":  c #00A758",
">  c #02A859",
",  c #16A95C",
"<  c #1DA95D",
"1  c #27AA60",
"2  c #2CAB62",
"3  c #34AC65",
"4  c #38AC67",
"5  c #3AAD68",
"6  c #44AE6D",
"7  c #4EB172",
"8  c #5DB47C",
"9  c #374F80",
"0  c #3D5282",
"q  c #435684",
"w  c #465885",
"e  c #4A5B86",
"r  c #4D5E88",
"t  c #4E6088",
"y  c #53628A",
"u  c #59678D",
"i  c #5B698E",
"p  c #5E6B90",
"a  c #616E91",
"s  c #647093",
"d  c #6A7596",
"f  c #6F7998",
"g  c #76819C",
"h  c #7B849E",
"j  c #76BC8C",
"k  c #79BC8F",
"l  c #7CBE91",
"z  c #7D86A0",
"x  c #80BF94",
"c  c #868DA6",
"v  c #868FA9",
"b  c #8C93AA",
"n  c #9097AE",
"m  c #959BAF",
"M  c #959CB2",
"N  c #989FB4",
"B  c #9DA3B5",
"V  c #9DA3B9",
"C  c #A5AABA",
"Z  c #AAAFBD",
"A  c #84C197",
"S  c #91C6A1",
"D  c #96C8A5",
"F  c #A3CDAF",
"G  c #A4CDB1",
"H  c #A7D0B3",
"J  c #ACD1B7",
"K  c #AFD2BA",
"L  c #B4D6BE",
"P  c #ADB1C2",
"I  c #B1B5C3",
"U  c #B5B9C5",
"Y  c #B2B7C8",
"T  c #BABDC8",
"R  c #BEC1CC",
"E  c #B8D7C1",
"W  c #BAD9C3",
"Q  c #BEC2D0",
"!  c #C1C4CE",
"~  c #C4DDCB",
"^  c #C1C5D1",
"/  c #C7C9D4",
"(  c #CACCD5",
")  c #CBCEDA",
"_  c #CDD0DB",
"`  c #D2D4DC",
"'  c #D7D9DF",
"]  c #C7E0CE",
"[  c #CBE1D2",
"{  c #D1E4D7",
"}  c #D7E7DB",
"|  c #D7E8DC",
" . c #D9E9DE",
".. c #D6D9E2",
"X. c #DCDEE4",
"o. c #DDEBE1",
"O. c #E1E2E7",
"+. c #E3EEE6",
"@. c #E3E5EB",
"#. c #EBEBEE",
"$. c #EBF4ED",
"%. c #EDEEF1",
"&. c #EFF1F2",
"*. c #F2F3F5",
"=. c #F3F9F4",
"-. c #F7F7F8",
";. c #F9F6FA",
":. c #FEFEFE",
">. c None",
/* pixels */
">.>.>.>.>.>.>.>.>.>.>.>.:.;.*.%.%.*.-.:.>.>.>.>.>.>.>.>.>.>.>.>.",
">.>.>.>.>.>.>.>.>.:.&.O._ Y B b b V Y _ O.*.:.>.>.>.>.>.>.>.>.>.",
">.>.>.>.>.>.>.:.%...m i q 0 0 w w 0 0 0 u M ..%.:.>.>.>.>.>.>.>.",
">.>.>.>.>.>.:.@.n O e y e e r t t r e r y w 0 n O.-.>.>.>.>.>.>.",
">.>.>.>.>.;._ e q p e y z B U R R U B h t t i o d &.:.>.>.>.>.>.",
">.>.>.>.:.Q X i i r n ( %.;.:.:.:.:.;.#.( b O B @.-.:.:.>.>.>.>.",
">.>.>.:._ o a y a R -.:.:.:.:.:.:.:.:.:.:.*.T X.:.:.:.:.:.>.>.>.",
">.>.:.@.r i y f ' :.:.;.:.:.:.:.:.-.o.K { :.:.:.:.:.:.:.:.:.>.>.",
">.>.*.b r u s ` :.:.:.:.:.:.:. .J A ; ,  .:.:.:.:.:.:.:.:.:.>.>.",
">.:.` q i t R :.:.:.:.#.@.:.o.3 # = @ F :.:.;.:.:.:.:.:.:.:.:.>.",
">.*.n e r b -.:.@.` Z h ` :.G # 5 ; 5  .:.:.:.:.:.:.:.:.:.:.:.>.",
">.X.p t y ( :.*.m w   g ;.$.6 = 4 % S -.:.:.:.:.:.:.:.:.:.:.:.>.",
":./ e e z #.:.:.C o y ( :.L & 2 - : [ :.:.:.:.:.:.:.:.:.:.:.:.:.",
":.P w e B :.:.:.` O g *.=.8 * 5 % l =.:.:.:.:.:.:.:.:.:.:.:.:.:.",
"*.N w r U :.:.:.#.a I :.~ * < ; ; ~ :.:.:.:.:.:.:.:.:.:.:.:.:.:.",
"%.c w t ! :.:.:.-.Z O.:.j & 5 * 8 $.:.:.:.:.:.:.:.:.:.:.:.:.:.:.",
"&.c e t ! :.:.:.:.%.:.] = < < : 1 D +.:.:.:.:.:.:.:.:.:.:.:.:.:.",
"*.N w e U :.:.:.:.:.:.L % * < 1 ; * 7 E =.:.:.:.:.:.:.:.;.:.:.:.",
":.P w e B :.:.:.:.;.:.:.[ 8 % - 2 < = = A } :.:.:.:.:.:.:.:.:.:.",
":./ e r h %.:.:.:.:.O.#.:.$.G : & , 3 : * 5 J $.:.:.%.@.:.;.:.:.",
">.X.p t y ( :.:.:.:...g / :.:.| l * = 2 > $ + 8 | :.! f C M @.>.",
">.*.n r r b ;.:.;.:.*.h O B @.:.:.L 6 % > j H ~ =.*.b 9 . v %.>.",
">.:.` w i r R :.:.:.:.U O t p I *.:.o.W | =.:.:.:.T r a 0 X.:.>.",
">.>.*.v e u s ' :.:.:.` O w a n ' :.:.:.:.:.:.:.` p u q n &.>.>.",
">.>.:.@.r i y f ' :.:.%.P ( #.;.;.:.:.:.:.:.:.` d y i t @.:.>.>.",
">.>.>.:.) O a y s T -.:.:.:.:.:.:.:.:.:.:.-.T a y a X _ :.>.>.>.",
">.>.>.>.-.Q O i u t b ) &.:.:.:.:.:.:.#./ v r u i o ! ;.>.>.>.>.",
">.>.>.>.>.:.) r e u r y g B I ! R U N h y r p e r ) ;.>.>.>.>.>.",
">.>.>.>.>.>.:.@.b q r r e e r t r r w e t r w v @.:.>.>.>.>.>.>.",
">.>.>.>.>.>.>.:.*.` n p e w w w e w e e p n ` &.:.>.>.>.>.>.>.>.",
">.>.>.>.>.>.>.>.>.:.*.X./ P N c c N P / O.*.:.>.>.>.>.>.>.>.>.>.",
">.>.>.>.>.>.>.>.>.>.>.>.:.:.*.*.&.=.;.:.>.>.>.>.>.>.>.>.>.>.>.>."
};
