/* XPM */
static char *ec711d74c4494c47dcf3ef0d3fba1b7d[] = {
/* columns rows colors chars-per-pixel */
"80 80 114 2 ",
"   c #043977",
".  c #25447B",
"X  c #2F497D",
"o  c #334C7E",
"O  c #009E2D",
"+  c #009F34",
"@  c #00A037",
"#  c #00A03C",
"$  c #00A244",
"%  c #00A44B",
"&  c #00A654",
"*  c #00A859",
"=  c #0DA85A",
"-  c #14A95C",
";  c #1CA95D",
":  c #22AA5F",
">  c #25AA60",
",  c #2EAB63",
"<  c #31AB64",
"1  c #37AD68",
"2  c #3DAE6A",
"3  c #41AF6D",
"4  c #46B06F",
"5  c #4BB071",
"6  c #55B377",
"7  c #57B379",
"8  c #5CB47B",
"9  c #394F80",
"0  c #3D5282",
"q  c #425583",
"w  c #465985",
"e  c #4A5B86",
"r  c #4E5F88",
"t  c #505F88",
"y  c #4F6089",
"u  c #54638A",
"i  c #58668C",
"p  c #5E6B8F",
"a  c #5F6C90",
"s  c #626E91",
"d  c #647092",
"f  c #6A7595",
"g  c #6E7897",
"h  c #6E7998",
"j  c #737C9A",
"k  c #7A839E",
"l  c #64B781",
"z  c #6BB986",
"x  c #6EBA88",
"c  c #70BB89",
"v  c #7CBF92",
"b  c #7E86A1",
"n  c #828AA3",
"m  c #888FA7",
"M  c #8990A7",
"N  c #8C93A9",
"B  c #9197AC",
"V  c #949AAE",
"C  c #979DB0",
"Z  c #999FB2",
"A  c #9DA2B4",
"S  c #A0A5B6",
"D  c #A2A7B8",
"F  c #A4A9BA",
"G  c #AAAEBD",
"H  c #ACB1BF",
"J  c #8AC49D",
"K  c #91C7A2",
"L  c #9DCCAC",
"P  c #A1CDAE",
"I  c #A3CEB0",
"U  c #A7D0B3",
"Y  c #AED3B9",
"T  c #B3D6BD",
"R  c #AEB2C0",
"E  c #B2B6C3",
"W  c #B6B9C6",
"Q  c #B8BBC7",
"!  c #BABDC9",
"~  c #BDC1CC",
"^  c #B6D7C0",
"/  c #BBDAC4",
"(  c #C1C4CE",
")  c #C4DECC",
"_  c #C4C7D0",
"`  c #C6C9D2",
"'  c #CACDD6",
"]  c #CFD1D9",
"[  c #D2D4DB",
"{  c #D7D8DF",
"}  c #C8E0CF",
"|  c #CCE2D3",
" . c #D1E5D7",
".. c #D2E6D8",
"X. c #D7E8DC",
"o. c #D9E9DE",
"O. c #DBDDE3",
"+. c #DFE0E5",
"@. c #DCEBE0",
"#. c #E1E2E7",
"$. c #E2EEE6",
"%. c #E5E6EA",
"&. c #E7E9EB",
"*. c #EBEBEE",
"=. c #E6F0E9",
"-. c #E9F3EC",
";. c #EDEEF1",
":. c #EFF2F2",
">. c #F2F3F5",
",. c #F4F9F6",
"<. c #F7F7F8",
"1. c #F7F9F8",
"2. c #FEFEFE",
"3. c None",
/* pixels */
"3.3.3.3.3.3.3.3.3.3.3.3.3.3.3.3.3.3.3.3.3.3.3.3.3.3.3.3.3.3.3.3.3.3.2.2.1.2.2.1.2.2.2.2.1.2.3.3.3.3.3.3.3.3.3.3.3.3.3.3.3.3.3.3.3.3.3.3.3.3.3.3.3.3.3.3.3.3.3.3.",
"3.3.3.3.3.3.3.3.3.3.3.3.3.3.3.3.3.3.3.3.3.3.3.3.3.3.3.3.3.2.1.2.2.2.2.2.2.2.2.2.2.2.2.2.2.2.2.2.2.1.2.3.3.3.3.3.3.3.3.3.3.3.3.3.3.3.3.3.3.3.3.3.3.3.3.3.3.3.3.3.",
"3.3.3.3.3.3.3.3.3.3.3.3.3.3.3.3.3.3.3.3.3.3.3.3.3.3.2.2.2.2.2.2.2.1.;.O.[ ' ( ~ ~ ( ' ] +.*.<.2.2.2.2.2.2.2.3.3.3.3.3.3.3.3.3.3.3.3.3.3.3.3.3.3.3.3.3.3.3.3.3.3.",
"3.3.3.3.3.3.3.3.3.3.3.3.3.3.3.3.3.3.3.3.3.3.3.3.2.2.2.2.2.>.O.Q Z k s r q q 0 q 0 0 q w t s k Z Q O.>.2.2.2.2.2.3.3.3.3.3.3.3.3.3.3.3.3.3.3.3.3.3.3.3.3.3.3.3.3.",
"3.3.3.3.3.3.3.3.3.3.3.3.3.3.3.3.3.3.3.3.3.3.2.2.2.2.>.] A h w 0 w y i a s s s d d s d s s i u w 0 w f A ] <.2.2.2.2.3.3.3.3.3.3.3.3.3.3.3.3.3.3.3.3.3.3.3.3.3.3.",
"3.3.3.3.3.3.3.3.3.3.3.3.3.3.3.3.3.3.3.3.2.2.2.2.%.W j w w i s s d s s p a a p a p p p p p a s s d s i w w h E *.2.2.2.2.3.3.3.3.3.3.3.3.3.3.3.3.3.3.3.3.3.3.3.3.",
"3.3.3.3.3.3.3.3.3.3.3.3.3.3.3.3.3.3.2.2.2.2.%.D i 0 i s s s p p a p p p p p p p a p p p p p p p a p a s d i 0 u D %.2.2.2.2.3.3.3.3.3.3.3.3.3.3.3.3.3.3.3.3.3.3.",
"3.3.3.3.3.3.3.3.3.3.3.3.3.3.3.3.3.2.2.2.:.G y q p s s p p p p p p p p p p p p a p p p p p p p p a p p p p s d p q i G :.2.2.2.3.3.3.3.3.3.3.3.3.3.3.3.3.3.3.3.3.",
"3.3.3.3.3.3.3.3.3.3.3.3.3.3.3.2.2.2.2.' f q a d p a p p p a a a p p p p p p p p p p p p p p p p p p p p p p p s s a q f ' 2.2.2.2.3.3.3.3.3.3.3.3.3.3.3.3.3.3.3.",
"3.3.3.3.3.3.3.3.3.3.3.3.3.3.2.2.2.>.Z 9 i d p p p p p p p a i a a s s d d s s s s s s d d d s p p p p p p p p p p a d i 0 A >.2.2.2.3.3.3.3.3.3.3.3.3.3.3.3.3.3.",
"3.3.3.3.3.3.3.3.3.3.3.3.3.2.2.2.O.h q s s p p p p p p p a p s d a i w q 0 0 w w w w q 9 q w i s d s p p p p p p p p p a d e j O.2.2.2.3.3.3.3.3.3.3.3.3.3.3.3.3.",
"3.3.3.3.3.3.3.3.3.3.3.3.2.2.2.' e i d p a p p p p p p a s a t q e h B H ( ] O.O.O.{ ] ( G B f w q t s s p p p p p p p a i r X i #.2.2.2.3.3.3.3.3.3.3.3.3.3.3.3.",
"3.3.3.3.3.3.3.3.3.3.3.2.2.2.~ 0 p s p p p p p p p p d p w r m Q #.>.2.2.2.2.2.2.2.2.2.2.2.2.>.O.W n e w p d p p p p s u j F ] ;.1.2.2.2.2.3.3.3.3.3.3.3.3.3.3.3.",
"3.3.3.3.3.3.3.3.3.3.2.2.2.Q 9 s s p p p p p p p s p 0 p G O.1.2.2.2.2.2.2.2.2.1.2.2.2.1.2.2.2.2.2.1.O.S u w a s p s w W 1.2.2.2.2.2.2.2.2.2.3.3.3.3.3.3.3.3.3.3.",
"3.3.3.3.3.3.3.3.3.2.2.2.( o d a p p p p p p a s w u R *.2.2.2.2.2.2.2.2.2.2.2.2.2.2.2.2.2.2.2.2.1.2.2.2.%.F y e d i h <.2.2.2.2.2.2.2.2.2.2.2.3.3.3.3.3.3.3.3.3.",
"3.3.3.3.3.3.3.3.2.2.2.' 0 s a p p p p p p s p q Z &.2.2.2.1.2.2.2.2.2.2.2.2.2.2.2.2.2.2.2.2.2.2.2.2.2.2.2.2.#.N w 0 ! 2.1.2.2.2.2.2.2.2.2.2.2.2.3.3.3.3.3.3.3.3.",
"3.3.3.3.3.3.3.3.2.2.+.y p s p p p p p p s y u _ 2.2.2.2.2.2.2.2.2.2.2.2.2.2.2.2.2.2.2.2.2.2.2.2.2.2.2.2.1.2.2.2.W d ;.2.2.2.2.2.2.2.2.2.2.2.2.2.3.3.3.3.3.3.3.3.",
"3.3.3.3.3.3.3.2.2.>.g u s p p p p p p d w k %.2.2.<.2.2.2.2.2.2.2.2.2.2.2.2.2.2.2.2.2.2.2.1.2.2.2.2.2.>.2.2.2.2.2.;.2.2.2.2.2.2.2.2.2.2.2.2.2.2.2.3.3.3.3.3.3.3.",
"3.3.3.3.3.3.2.2.2.A q d p p p p p p d q N >.2.2.2.2.2.2.2.2.2.2.2.2.2.2.2.2.2.2.2.2.2.2.2.2.2.2.$./ z T 2.2.2.2.2.2.2.2.2.2.2.2.2.2.2.2.2.2.2.2.2.2.3.3.3.3.3.3.",
"3.3.3.3.3.3.2.2.' q s p p p p p p d w B 1.2.1.2.2.2.2.2.2.2.2.2.2.2.2.2.2.2.1.2.2.2.2.2.1.@.Y c * @ % -.2.2.2.2.2.2.2.2.2.2.2.2.2.2.2.2.2.2.2.2.2.2.3.3.3.3.3.3.",
"3.3.3.3.3.2.2.:.f i s p p p p p d w B 1.2.2.2.2.2.2.2.2.2.2.2.2.2.2.2.2.2.2.2.2.2.:. .L 6 % + $ : $ L 2.2.2.2.2.2.2.2.2.2.2.2.2.2.2.2.2.2.2.2.2.2.2.2.3.3.3.3.3.",
"3.3.3.3.3.2.2.G 0 d p p p p p s u j >.2.2.2.2.2.2.2.2.2.2.2.2.2.2.2.2.2.2.2.-.) J 1 # @ % = : ; = % $.2.2.2.2.2.2.2.2.2.2.2.2.2.2.2.2.2.2.2.2.2.2.2.2.3.3.3.3.3.",
"3.3.3.3.2.2.&.u p a p p p p s p i #.2.1.2.2.2.2.2.2.2.2.2.2.2.2.2.2.2.2.2.) $ $ # & ; : - = * : # J 2.2.2.2.2.2.2.2.2.2.2.2.2.2.2.2.2.2.2.2.2.2.2.2.2.2.3.3.3.3.",
"3.3.3.3.2.2.F q s p p p p p s q ` 2.2.2.2.2.2.2.2.2.2.2.2.2.2.2.2.2.2.2.2.8 $ , ; - * * * * * - $ o.2.2.2.2.2.2.2.2.2.2.2.2.2.2.2.2.2.2.2.2.2.2.2.2.2.2.3.3.3.3.",
"3.3.3.2.2.*.i a s p p p p s w C 2.2.2.2.2.2.2.2.2.2.2.2.1.%.E W 2.2.2.2. .# > * * * * * * * ; $ c 2.2.2.2.2.2.2.2.2.2.2.2.2.2.2.2.2.2.2.2.2.2.2.2.2.2.2.2.3.3.3.",
"3.3.3.2.2.E q s p p p p p p i %.2.2.2.2.2.2.2.2.2.>.O.R n i   [ 2.2.2.2.v $ ; * * * * * * * > + ) 2.2.2.2.2.2.2.2.2.2.2.2.2.2.2.2.2.2.2.2.2.2.2.2.2.2.2.2.3.3.3.",
"3.3.2.2.>.h i s p p p p d q E 2.2.2.2.2.2.2.;.' A g w 0 u y B 2.2.1.2.o.% - * * * * * * * - % 7 1.2.2.2.2.2.2.2.2.2.2.2.2.2.2.2.2.2.2.2.2.2.2.2.2.2.2.2.2.2.3.3.",
"3.3.2.2.] 0 s p p p p a p s *.2.1.2.2.>.( V d q w i s s d q ' 2.2.2.2.K # > * * * * * * * : + ^ 2.2.2.2.2.2.2.2.2.2.2.2.2.2.2.2.2.2.2.2.2.2.2.2.2.2.2.2.2.2.3.3.",
"3.3.2.2.S w s p p p p s q H 2.2.2.2.2.;.r w p s s s a a t k <.2.2.2.=.& & = * * * * * * - & 1 >.2.2.2.2.2.2.2.2.2.2.2.2.2.2.2.2.2.2.2.2.2.2.2.2.2.2.2.2.2.2.3.3.",
"3.2.2.>.g i a p p p s a u #.2.1.2.2.2.2.A e d p p a a d 0 ( 2.2.2.2.U + > * * * * * * * : @ U 2.2.2.2.2.2.2.2.2.2.2.2.2.2.2.2.2.2.2.2.2.2.2.2.2.2.2.2.2.2.2.2.3.",
"3.1.2.O.w s a p p p s e M 2.2.2.2.2.2.2.` 9 d p p p s i d :.2.1.2.:.2 & - * * * * * * = * & $.2.2.2.2.2.2.2.2.2.2.2.2.2.2.2.2.2.2.2.2.2.2.2.2.2.2.2.2.2.2.2.2.3.",
"3.2.2.Q 0 s a p p p d 0 ~ 2.2.2.2.2.2.2.*.i p p p p s q R 2.2.2.2.^ + : * * * * * * * : @ K 2.2.2.2.2.2.2.2.2.2.2.2.2.2.2.2.2.2.2.2.2.2.2.2.2.2.2.2.2.2.2.2.2.3.",
"3.2.2.Z e d p p p p s r #.2.2.2.2.2.2.2.2.M e s p p s i %.2.2.2.1.7 % - * * * * * * * - $ o.2.2.2.2.2.2.2.2.2.2.2.2.2.2.2.2.2.2.2.2.2.2.2.2.2.2.2.2.2.2.2.2.2.3.",
"3.2.<.k t a p a p s u j >.2.2.2.2.2.2.1.2.W q d p s w S 2.2.2.2.} # : * * * * * * * ; $ v 2.2.2.2.2.2.2.2.2.2.2.2.2.2.2.2.2.2.2.2.2.2.2.2.2.2.2.2.2.2.2.2.2.2.3.",
"2.2.*.s p p p p p s w A 2.2.2.2.2.2.2.2.2.#.t s a a e #.2.2.2.2.c $ : * * * * * * * ; # | 2.2.2.2.2.2.2.2.2.2.2.2.2.2.2.2.2.2.2.2.2.2.2.2.2.2.2.2.2.2.2.2.2.2.2.",
"2.2.O.t s p p p p d q E 2.2.2.2.2.2.2.2.2.<.k u d w B 2.2.1.2.X.$ - * * * * * * = - % l 1.2.2.2.2.2.2.2.2.2.2.2.2.2.2.2.2.2.2.2.2.2.2.2.2.2.2.2.2.2.2.2.2.2.2.2.",
"2.2.] w s p p p p s q ' 2.2.2.2.2.2.2.2.2.2.H q f q ] 2.2.2.2.J # ; * * * * * * * : @ / 2.2.2.2.2.2.2.2.2.2.2.2.2.2.2.2.2.2.2.2.2.2.2.2.2.2.2.2.2.2.2.2.2.2.2.2.",
"2.2.` q s p p p p s w [ 2.1.2.2.2.2.2.2.2.2.{ e i k 1.2.2.2.$.& * = * * * * * * - % 2 ,.2.2.2.2.2.2.2.2.2.2.2.2.2.2.2.2.2.2.2.2.2.2.2.2.2.2.2.2.2.2.2.2.2.2.2.2.",
"2.2.~ q d p p p a s t O.2.2.2.2.2.2.2.2.2.2.>.h o _ 2.2.2.2.P # : * * * * * * * : # T 2.1.2.2.2.2.2.2.2.2.2.2.2.2.2.2.2.2.2.2.2.2.2.2.2.2.2.2.2.2.2.2.2.2.2.2.2.",
"2.2.Q q d p p p a a y #.2.2.2.2.2.2.2.2.2.2.2.A p >.2.2.2.:.> & = * * * * * * * - %  .2.2.2.2.2.2.2.2.2.2.2.2.2.2.2.2.2.2.2.2.2.2.2.2.2.2.2.2.2.2.2.2.2.2.2.2.2.",
"2.2.~ q s p p p p s y #.2.2.2.2.2.2.2.2.2.2.2.( H 2.2.2.2.T + > * * * * * * * * = * ; T 2.2.2.2.2.2.2.2.2.2.2.2.2.2.2.2.2.2.2.2.2.2.2.2.2.2.2.2.2.2.2.2.2.2.2.2.",
"2.2.~ q s p p p p s e O.2.2.2.2.2.2.2.2.2.2.2.;.;.2.1.2.,.5 % - * * * * * * * * * = & @ z o.2.2.1.2.2.2.2.2.2.2.2.2.2.2.2.2.2.2.2.2.2.2.2.2.2.2.2.2.2.2.2.2.2.2.",
"2.2.` q d p p p p s w [ 2.2.2.2.2.2.2.2.2.2.2.2.2.2.2.2.) # : * * * * * * * * * * * - : $ % P ,.2.2.2.2.2.2.2.2.2.2.2.2.2.2.2.2.2.2.2.2.2.2.2.2.2.2.2.2.2.2.2.2.",
"2.2.] w s p p p a s q ' 2.2.2.2.2.2.2.2.2.2.2.2.1.2.2.2.l O , = * * * * * * * * * * * * ; = + 4 | 2.2.2.2.2.2.2.2.2.2.2.2.2.2.2.2.2.2.2.2.2.2.2.2.2.2.2.2.2.2.2.",
"2.2.O.y s p p p p s q E 2.2.2.2.2.2.2.2.2.2.2.2.2.2.2.2.@.z O & : * * * * * * * * * * * * = : % # J -.2.2.2.2.2.2.2.2.2.2.2.2.2.2.2.2.2.2.2.2.2.2.2.2.2.2.2.2.2.",
"1.2.;.d i s p p p s w Z 2.2.2.2.2.2.2.2.2.2.2.2.2.2.2.2.2.2.^ > # : - * * * * * * * * * * * * - ; # * ^ 2.2.1.2.2.2.2.2.2.2.2.2.2.2.2.2.2.2.2.2.2.2.2.2.2.2.2.2.",
"3.2.>.k u s p p p s i j >.2.2.2.2.2.2.2.2.2.2.2.2.2.2.2.2.2.2.-.J # % : = * * * * * * * * * * * * : & @ z o.2.2.2.2.2.2.2.2.2.2.2.2.2.2.2.2.2.2.2.2.2.2.2.2.2.3.",
"3.2.2.A w s p p p a a r #.2.2.2.2.2.2.2.2.2.2.2.2.2.2.2.1.2.2.2.2.| 5 @ = ; * * * * * * * * * * * * - : $ % I ,.2.2.2.2.2.2.2.2.2.2.2.2.2.2.2.2.2.2.2.2.2.2.2.3.",
"3.2.2.Q 0 d p p p p d 0 ! 2.2.2.2.2.2.2.2.2.2.2.2.>.` 1.2.2.2.2.2.2.,.P % % : - * * * * * * * * * * * * ; = + 5 ) 2.2.2.2.2.2.2.2.2.2.:.2.2.2.2.2.2.2.2.2.2.2.3.",
"3.2.2.O.w s p p p p s e M 2.2.2.2.2.2.2.2.2.2.2.2.2.Z j O.2.2.2.2.2.2.2.@.z O * : * * * * * * * * * * * * = : % # J -.2.2.2.2.2.2.2.>.k R 1.2.2.2.2.1.O.>.2.2.3.",
"3.2.2.>.h i a p p p p s y #.2.2.2.2.2.2.2.2.2.2.2.2.[ . y R >.2.2.2.2.2.2.2.^ - # ; - & * * * * * * * * * * * - : # = ^ 2.2.2.2.2.2.{ w w j ] >.O.E b d :.2.2.3.",
"3.3.2.2.A w s a p p p s w H 2.2.2.2.2.2.2.2.2.2.2.2.;.f p q g ' 2.2.1.2.2.2.2.-.J # & : = * * * * * * * * * * = - , - O 7  .2.2.2.2.A w f y r g w w X D 2.2.3.3.",
"3.3.2.2.] 0 d p p p p a i d ;.2.2.2.2.2.2.2.2.2.2.2.2.V e f u q Z *.2.2.2.2.2.2.2.| 4 + = ; * * * * * * * - : - & # # > z T 1.2.2.%.y p p s s i s f w ] 2.2.3.3.",
"3.3.2.2.>.h i s p p p p d q E 2.2.2.2.2.2.2.2.2.2.1.2._ q d s s w p ~ 2.2.2.2.1.2.2.,.P % $ > - * = ; : - % @ $ 3 J ) -.2.2.2.2.2.S w d p p p a a u j >.2.2.3.3.",
"3.3.3.2.2.E q s p p p p a p i %.2.2.2.2.2.2.2.2.2.2.2.*.i p p s d i o m O.2.2.2.2.2.2.2.@.x @ & : & $ # % 8 P ..>.2.2.2.2.2.2.2.O.e s p p p a p d q E 2.2.3.3.3.",
"3.3.3.2.2.%.i a s p p p p s w Z 2.2.2.2.2.2.2.2.2.2.2.1.M r s p p s d t e R >.2.2.1.2.2.2.2.T * O & c Y o.1.2.2.2.2.1.2.2.2.2.1.N e s p p p p a p u &.2.2.3.3.3.",
"3.3.3.3.2.2.D w s p p p p p s q ` 2.2.2.2.2.2.2.2.2.2.2.Q q d a p p p s s q h ] 2.2.2.2.2.2.2.=.) $.2.2.2.2.2.1.2.2.2.2.2.2.2.W q s p p p p p s w F 2.2.3.3.3.3.",
"3.3.3.3.2.2.%.y s p p p p p s p i #.2.2.2.2.2.2.2.2.2.2.#.e a a p p p p p d i w V %.2.2.2.2.1.2.2.2.2.2.2.2.2.2.2.2.2.2.1.2.{ e a p p p p p p p y %.2.2.3.3.3.3.",
"3.3.3.3.3.2.2.G 0 d p p p p p s u k >.2.1.2.2.2.2.2.2.2.1.k y s p p s s s u w w i F >.2.2.2.2.2.2.1.2.2.2.2.2.2.2.2.2.2.2.*.f i s p p p p p s q G 2.2.3.3.3.3.3.",
"3.3.3.3.3.2.2.:.d p a p p p p p d w N <.2.2.2.2.2.2.2.2.2.G q f d p e w t k R { >.2.2.2.2.2.2.2.2.2.2.2.2.2.2.2.2.2.2.2.>.k t s p p p p p s i g >.2.2.3.3.3.3.3.",
"3.3.3.3.3.3.2.2.' o d p p p p p p d w N 1.2.1.2.2.2.2.1.2.[ 9 y 0 i M Q +.1.2.2.2.2.2.2.2.2.2.2.2.2.2.2.2.2.2.2.2.2.2.>.n e d p p p p p p d 9 ' 2.2.3.3.3.3.3.3.",
"3.3.3.3.3.3.2.2.2.A q s p p p p p p d w N >.2.2.2.2.2.2.2.:.j C ` &.2.2.2.2.2.2.2.2.2.2.2.2.2.2.2.2.2.2.2.2.2.2.2.2.*.b e d i p p p p p d q A 2.2.2.3.3.3.3.3.3.",
"3.3.3.3.3.3.3.2.2.>.g i s p p p p p p d w j #.2.2.2.2.2.2.2.>.2.2.2.2.2.1.2.2.2.2.2.2.2.2.2.2.2.2.2.2.2.2.2.2.2.2.O.d t s p a a p p p s i h >.2.2.3.3.3.3.3.3.3.",
"3.3.3.3.3.3.3.3.2.2.O.e p a p p p p p s d u u _ 2.2.2.2.2.2.2.2.2.2.2.2.2.2.2.2.2.2.2.2.2.2.2.2.2.2.2.2.2.2.2.2.~ e i s p p p p p p s p t O.2.2.3.3.3.3.3.3.3.3.",
"3.3.3.3.3.3.3.3.2.2.2.' q s s p p p p p p s i q V %.2.2.2.2.2.2.2.2.2.2.2.2.2.2.2.2.2.2.2.2.2.2.2.2.2.2.2.2.#.M q s s p p p p p p p s 0 ' 2.2.2.3.3.3.3.3.3.3.3.",
"3.3.3.3.3.3.3.3.3.2.2.2.~ 9 s a p p p p p p s s w y G *.2.2.2.1.2.2.2.2.2.2.2.2.2.2.2.2.2.2.2.2.1.2.2.2.%.F r r d p p p p p p p a d 0 ~ 2.2.2.3.3.3.3.3.3.3.3.3.",
"3.3.3.3.3.3.3.3.3.3.2.2.2.W 9 s a p p p p p p p d p q a G +.2.2.2.2.2.2.2.2.1.2.1.2.2.2.2.2.2.2.2.1.O.D i w a s p p p p p p i a s 9 W 2.2.2.3.3.3.3.3.3.3.3.3.3.",
"3.3.3.3.3.3.3.3.3.3.3.2.2.2.~ q p s p p p p p p a a d p q r m Q O.>.2.2.2.2.2.2.2.2.2.2.2.2.:.O.E n e w a s p p p p p p p p s s 0 ! 2.2.2.3.3.3.3.3.3.3.3.3.3.3.",
"3.3.3.3.3.3.3.3.3.3.3.3.2.2.2.' e i d s a p a p p p p a s a r 0 w g V H ( ] { O.O.{ ] ~ G B f w 0 t s s p p p p p p p p p d i y ' 2.2.2.3.3.3.3.3.3.3.3.3.3.3.3.",
"3.3.3.3.3.3.3.3.3.3.3.3.3.2.2.2.O.g q d a p p p p p p p p a s d s i w w q w e e r w w q w w i s d s p p p p p p p p p s d q f O.2.2.2.3.3.3.3.3.3.3.3.3.3.3.3.3.",
"3.3.3.3.3.3.3.3.3.3.3.3.3.3.2.2.2.,.Z 0 i d a p p p p p p p p p p a d s s s s s s s s s s s s p p p p p p a p p p p d i q Z >.2.2.2.3.3.3.3.3.3.3.3.3.3.3.3.3.3.",
"3.3.3.3.3.3.3.3.3.3.3.3.3.3.3.2.2.2.2.' f 0 p d a p p p p p p p p p p p p p p p a p a p p p p p p p p p p p p p d a q d ' 2.2.2.2.3.3.3.3.3.3.3.3.3.3.3.3.3.3.3.",
"3.3.3.3.3.3.3.3.3.3.3.3.3.3.3.3.3.2.2.2.:.G y w p d s p p p p p p p p p p p p p p p p p p p p p p p p p a a s a q u G ;.2.2.2.3.3.3.3.3.3.3.3.3.3.3.3.3.3.3.3.3.",
"3.3.3.3.3.3.3.3.3.3.3.3.3.3.3.3.3.3.2.2.2.2.&.F i q i d s a p p p p p p p p p p p p a p p p p p p p s s s i q i D %.2.2.2.2.3.3.3.3.3.3.3.3.3.3.3.3.3.3.3.3.3.3.",
"3.3.3.3.3.3.3.3.3.3.3.3.3.3.3.3.3.3.3.3.2.2.2.2.%.E h q w i s d d s a a a a p p p p p p p a s s d s i q q g E &.2.2.2.2.3.3.3.3.3.3.3.3.3.3.3.3.3.3.3.3.3.3.3.3.",
"3.3.3.3.3.3.3.3.3.3.3.3.3.3.3.3.3.3.3.3.3.3.2.2.2.2.>.] A g w 0 w u i s s s s d s d s s a p i w 0 e h A ] >.2.2.2.2.3.3.3.3.3.3.3.3.3.3.3.3.3.3.3.3.3.3.3.3.3.3.",
"3.3.3.3.3.3.3.3.3.3.3.3.3.3.3.3.3.3.3.3.3.3.3.3.2.2.2.2.2.>.O.Q Z k s r w q q q q q q w y s b Z Q O.>.2.2.2.2.2.3.3.3.3.3.3.3.3.3.3.3.3.3.3.3.3.3.3.3.3.3.3.3.3.",
"3.3.3.3.3.3.3.3.3.3.3.3.3.3.3.3.3.3.3.3.3.3.3.3.3.3.2.2.2.2.2.2.2.1.;.O.] ` ~ ~ Q ( ` ] O.*.<.2.2.2.2.2.2.2.3.3.3.3.3.3.3.3.3.3.3.3.3.3.3.3.3.3.3.3.3.3.3.3.3.3.",
"3.3.3.3.3.3.3.3.3.3.3.3.3.3.3.3.3.3.3.3.3.3.3.3.3.3.3.3.3.2.2.2.2.2.2.2.2.2.2.2.2.2.2.2.2.2.2.2.2.2.2.3.3.3.3.3.3.3.3.3.3.3.3.3.3.3.3.3.3.3.3.3.3.3.3.3.3.3.3.3.",
"3.3.3.3.3.3.3.3.3.3.3.3.3.3.3.3.3.3.3.3.3.3.3.3.3.3.3.3.3.3.3.3.3.3.2.2.1.2.2.1.2.2.2.2.2.2.3.3.3.3.3.3.3.3.3.3.3.3.3.3.3.3.3.3.3.3.3.3.3.3.3.3.3.3.3.3.3.3.3.3."
};
